<svg width="126" height="90" viewBox="0 0 126 90" fill="none" xmlns="http://www.w3.org/2000/svg">
<path d="M27.7123 19.2869L21.2945 18.3806L18.2248 18.0952L15.4335 18.1453L14.8697 20.8795L14.5843 23.9492L14.2919 30.4241L14.7277 35.7282L15.4418 41.3679L17.3839 47.1217L19.383 52.2615L22.3316 57.18L25.6157 61.8201L29.2924 65.5678L33.3617 68.4231L38.3804 71.0571L43.4562 73.0771L48.5891 74.4832L54.0575 75.6109L64.4374 77.1952L65.1294 66.4226L65.0291 60.8401L64.2579 55.8144L63.2082 50.4532L61.2091 45.3133L59.1528 40.7874L56.4827 36.2044L52.5276 32.1212L48.2369 28.3164L43.2753 25.0685L38.2566 22.4345L32.8452 20.6929L27.7123 19.2869Z" fill="#859F64"/>
<path d="M47.7791 12.1295L42.0196 9.15665L39.2159 7.8745L36.5644 7.00093L35.1301 9.39603L33.8479 12.1997L31.4358 18.2157L30.0972 23.3666L28.9108 28.9261L28.8459 34.9985L29.0374 40.5101L30.1983 46.126L31.7677 51.5897L34.0021 56.3406L36.9015 60.3785L40.7703 64.5208L44.8955 68.1023L49.2771 71.123L54.0673 73.9916L63.3434 78.9117L67.5506 68.9706L69.2977 63.6675L70.2277 58.6687L71.0055 53.2614L70.814 47.7498L70.3661 42.7989L69.3574 37.5916L66.9708 32.4321L64.1756 27.4249L60.5633 22.7219L56.6945 18.5796L52.1608 15.1503L47.7791 12.1295Z" fill="#9CBB76"/>
<path d="M98.2388 19.2869L104.657 18.3806L107.726 18.0952L110.518 18.1453L111.082 20.8795L111.367 23.9492L111.659 30.4241L111.224 35.7282L110.509 41.3679L108.567 47.1217L106.568 52.2615L103.62 57.18L100.335 61.8201L96.6588 65.5678L92.5895 68.4231L87.5708 71.0571L82.495 73.0771L77.3621 74.4832L71.8937 75.6109L61.5137 77.1952L60.8218 66.4226L60.922 60.8401L61.6933 55.8144L62.743 50.4532L64.7421 45.3133L66.7983 40.7874L69.4685 36.2044L73.4236 32.1212L77.7142 28.3164L82.6759 25.0685L87.6946 22.4345L93.1059 20.6929L98.2388 19.2869Z" fill="#859F64"/>
<path d="M78.172 12.1295L83.9316 9.15665L86.7352 7.8745L89.3868 7.00093L90.8211 9.39603L92.1032 12.1997L94.5154 18.2157L95.8539 23.3666L97.0403 28.9261L97.1053 34.9985L96.9137 40.5101L95.7529 46.126L94.1835 51.5897L91.9491 56.3406L89.0496 60.3785L85.1809 64.5208L81.0557 68.1023L76.6741 71.123L71.8838 73.9916L62.6077 78.9117L58.4006 68.9706L56.6534 63.6675L55.7235 58.6687L54.9457 53.2614L55.1372 47.7498L55.5851 42.7989L56.5938 37.5916L58.9804 32.4321L61.7755 27.4249L65.3879 22.7219L69.2566 18.5796L73.7904 15.1503L78.172 12.1295Z" fill="#9CBB76"/>
<path d="M73.1566 10.6364L68.8088 5.88636L66.6348 3.72727L64.4609 2L62.287 3.72727L60.1131 5.88636L55.7653 10.6364L52.7218 14.9545L49.6783 19.7045L47.5044 25.3182L45.7653 30.5L44.8957 36.1136L44.4609 41.7273L44.8957 46.9091L46.2001 51.6591L48.374 56.8409L50.9827 61.5909L54.0262 65.9091L57.5044 70.2273L64.4609 78L71.8522 70.2273L75.3305 65.9091L77.9392 61.5909L80.5479 56.8409L82.287 51.6591L83.5914 46.9091L84.4609 41.7273L84.0262 36.1136L83.1566 30.5L81.4175 24.8864L79.2435 19.7045L76.2001 14.9545L73.1566 10.6364Z" fill="#B1D386"/>
<circle cx="42.4609" cy="36" r="11" fill="black"/>
<circle cx="86.4609" cy="36" r="11" fill="black"/>
<circle cx="39.5" cy="30.5" r="2.5" fill="white"/>
<circle cx="35" cy="35" r="1" fill="white"/>
<circle cx="83.5" cy="30.5" r="2.5" fill="white"/>
<circle cx="79.5" cy="35.5" r="1.5" fill="white"/>
<path d="M71.4442 53.2102C72.5296 53.098 73.5436 53.8751 73.3869 54.955C73.3297 55.3484 73.2379 55.7386 73.1115 56.1223C72.7781 57.1347 72.2112 58.0818 71.4431 58.9097C70.6751 59.7375 69.7209 60.4299 68.6351 60.9472C67.5492 61.4646 66.353 61.7967 65.1148 61.9247C63.8765 62.0528 62.6204 61.9742 61.4183 61.6934C60.2161 61.4127 59.0913 60.9353 58.1082 60.2885C57.1252 59.6417 56.303 58.8381 55.6886 57.9238C55.4839 57.619 55.3035 57.3039 55.1485 56.9805C54.6478 55.9368 55.4876 54.8601 56.639 54.741L56.7604 54.7285C57.778 54.6233 58.6724 55.3812 59.2429 56.2304C59.5931 56.7517 60.0619 57.2098 60.6224 57.5786C61.1829 57.9474 61.8242 58.2196 62.5096 58.3796C63.195 58.5397 63.9111 58.5845 64.6171 58.5115C65.3231 58.4385 66.0051 58.2491 66.6242 57.9542C67.2432 57.6592 67.7873 57.2645 68.2252 56.7925C68.6631 56.3205 68.9863 55.7805 69.1764 55.2033C69.4831 54.272 70.1459 53.3445 71.1212 53.2436L71.4442 53.2102Z" fill="black"/>
</svg>
