<svg width="23" height="15" viewBox="0 0 23 15" fill="none" xmlns="http://www.w3.org/2000/svg">
<path d="M2.50887 7.90586L1.64629 8.29485L1.24527 8.49918L0.90478 8.72318L1.04858 9.10454L1.25291 9.50556L1.72211 10.3273L2.18978 10.9477L2.71798 11.5878L3.40659 12.1462L4.05434 12.6244L4.80196 13.0011L5.56926 13.3174L6.31535 13.4929L7.04025 13.5276L7.86502 13.461L8.64892 13.3141L9.39196 13.0871L10.1547 12.7995L11.559 12.185L10.8037 10.8018L10.3557 10.1208L9.86841 9.56093L9.32053 8.98136L8.67278 8.50319L8.0659 8.10522L7.37882 7.74812L6.57219 7.55295L5.74589 7.41833L4.88025 7.40477L4.05548 7.47142L3.25191 7.6788L2.50887 7.90586Z" fill="#859F64" fill-opacity="0.7"/>
<path d="M21.2784 10.3418L21.7476 9.52013L21.9519 9.11911L22.0957 8.73775L21.7552 8.51375L21.3542 8.30942L20.4916 7.92043L19.7486 7.69337L18.945 7.48598L18.0597 7.43901L17.2546 7.43289L16.4283 7.56752L15.6217 7.76269L14.9149 8.05925L14.308 8.45722L13.6799 8.99592L13.1321 9.5755L12.6644 10.1959L12.2164 10.8769L11.4415 12.1995L12.8655 12.8746L13.6282 13.1622L14.3516 13.3287L15.1355 13.4755L15.9406 13.4817L16.6655 13.4469L17.4312 13.3319L18.1985 13.0157L18.9461 12.6389L19.6544 12.1411L20.2825 11.6024L20.8107 10.9623L21.2784 10.3418Z" fill="#859F64" fill-opacity="0.7"/>
<path d="M18.3214 4.88151L18.2262 3.94008L18.1597 3.49494L18.0553 3.10097L17.648 3.11633L17.2029 3.18286L16.2748 3.36708L15.538 3.61371L14.7634 3.91151L14.0153 4.38737L13.3563 4.84991L12.7618 5.43935L12.2185 6.06665L11.8153 6.7185L11.5523 7.39491L11.3538 8.19821L11.2444 8.9882L11.2239 9.76488L11.2546 10.5794L11.3918 12.1062L12.9431 11.8288L13.731 11.6201L14.4166 11.3356L15.1401 10.9999L15.7991 10.5374L16.3691 10.0881L16.9257 9.54985L17.3668 8.84683L17.7566 8.10595L18.0441 7.28935L18.2426 6.48605L18.301 5.6582L18.3214 4.88151Z" fill="#9CBB76" fill-opacity="0.7"/>
<path d="M6.6 3.47763L5.67187 3.29341L5.22673 3.22688L4.81946 3.21152L4.71507 3.60549L4.64855 4.05063L4.55335 4.99206L4.5738 5.76875L4.63211 6.5966L4.86847 7.45106L5.11814 8.2165L5.50799 8.95738L5.94902 9.6604L6.45452 10.2365L7.02448 10.6858L7.73464 11.1105L8.45811 11.4461L9.19488 11.6928L9.98282 11.9015L11.483 12.2167L11.6713 10.6521L11.702 9.83757L11.6304 9.09875L11.5209 8.30876L11.2713 7.54332L11.0083 6.86691L10.6563 6.1772L10.1129 5.5499L9.51841 4.96047L8.82156 4.44675L8.1114 4.02206L7.33677 3.72426L6.6 3.47763Z" fill="#9CBB76" fill-opacity="0.7"/>
<path d="M12.7298 2.24958L12.0932 1.54942L11.775 1.23117L11.4567 0.976562L11.1385 1.23117L10.8202 1.54942L10.1837 2.24958L9.73817 2.88608L9.29262 3.58624L8.97436 4.4137L8.71976 5.17751L8.59246 6.00496L8.52881 6.83242L8.59246 7.59623L8.78341 8.29639L9.10166 9.06019L9.48357 9.76035L9.92912 10.3969L10.4383 11.0334L11.4567 12.1791L12.5388 11.0334L13.048 10.3969L13.4299 9.76035L13.8118 9.06019L14.0664 8.29639L14.2574 7.59623L14.3847 6.83242L14.321 6.00496L14.1937 5.17751L13.9391 4.35005L13.6209 3.58624L13.1753 2.88608L12.7298 2.24958Z" fill="#B1D386" fill-opacity="0.7"/>
</svg>
