<svg width="19" height="20" viewBox="0 0 19 20" fill="none" xmlns="http://www.w3.org/2000/svg">
<path d="M8 18H18" stroke="white" stroke-width="2" stroke-linecap="round" stroke-linejoin="round"/>
<path d="M13 10C13 10 7 12 10 7" stroke="white" stroke-width="2" stroke-linecap="square" stroke-linejoin="round"/>
<path d="M6.5 6.4C7.6 7.2 8.3 8.6 8.8 10.1C6.8 10.5 5.3 10.5 4 9.8C2.8 9.2 1.7 7.9 1 5.6C3.8 5.1 5.4 5.6 6.5 6.4Z" stroke="white" stroke-width="2" stroke-linecap="round" stroke-linejoin="round"/>
<path d="M11.1 3C10.3376 4.19156 9.95407 5.58615 10 7C11.9 6.9 13.3 6.4 14.3 5.6C15.3 4.6 15.9 3.3 16 1C13.3 1.1 12 2 11.1 3Z" stroke="white" stroke-width="2" stroke-linecap="round" stroke-linejoin="round"/>
<path d="M13 17.5C18.5 15 12.5 15 15.5 10" stroke="white" stroke-width="2" stroke-linecap="square" stroke-linejoin="round"/>
</svg>
