<svg width="19" height="20" viewBox="0 0 19 20" fill="none" xmlns="http://www.w3.org/2000/svg">
<path d="M8 18H18" stroke="black" stroke-width="2" stroke-linecap="round" stroke-linejoin="round"/>
<path d="M13.0002 10C13.0002 10 7.00016 12 10.0002 7" stroke="black" stroke-width="2" stroke-linecap="square" stroke-linejoin="round"/>
<path d="M6.5 6.39961C7.6 7.19961 8.3 8.59961 8.8 10.0996C6.8 10.4996 5.3 10.4996 4 9.79961C2.8 9.19961 1.7 7.8996 1 5.5996C3.8 5.0996 5.4 5.59961 6.5 6.39961Z" stroke="black" stroke-width="2" stroke-linecap="round" stroke-linejoin="round"/>
<path d="M11.0998 3C10.3374 4.19156 9.95386 5.58615 9.99979 7C11.8998 6.9 13.2998 6.4 14.2998 5.6C15.2998 4.6 15.8998 3.3 15.9998 1C13.2998 1.1 11.9998 2 11.0998 3Z" stroke="black" stroke-width="2" stroke-linecap="round" stroke-linejoin="round"/>
<path d="M13 17.5C18.5 15 12.5 15 15.5 10" stroke="black" stroke-width="2" stroke-linecap="square" stroke-linejoin="round"/>
</svg>
