<svg version="1.2" xmlns="http://www.w3.org/2000/svg" viewBox="0 0 19 20" width="19" height="20"><style>.a{fill:none;stroke:#fff;stroke-linecap:round;stroke-linejoin:round;stroke-width:2}.b{fill:none;stroke:#fff;stroke-linecap:square;stroke-linejoin:round;stroke-width:2}</style><path fill-rule="evenodd" class="a" d="m8 18h10"/><path fill-rule="evenodd" class="b" d="m13 10c0 0-6 2-3-3"/><path fill-rule="evenodd" class="a" d="m6.5 6.4c1.1 0.8 1.8 2.2 2.3 3.7-2 0.4-3.5 0.4-4.8-0.3-1.2-0.6-2.3-1.9-3-4.2 2.8-0.5 4.4 0 5.5 0.8z"/><path fill-rule="evenodd" class="a" d="m11.1 3c-0.8 1.2-1.1 2.6-1.1 4 1.9-0.1 3.3-0.6 4.3-1.4 1-1 1.6-2.3 1.7-4.6-2.7 0.1-4 1-4.9 2z"/><path fill-rule="evenodd" class="b" d="m13 17.5c5.5-2.5-0.5-2.5 2.5-7.5"/></svg>