<svg version="1.2" xmlns="http://www.w3.org/2000/svg" viewBox="0 0 126 90" width="126" height="90"><style>.a{fill:#859f64}.b{fill:#9cbb76}.c{fill:#b1d386}.d{fill:#fff}</style><path class="a" d="m27.7 19.3l-6.4-0.9-3.1-0.3h-2.8l-0.5 2.8-0.3 3-0.3 6.5 0.4 5.3 0.7 5.7 2 5.7 2 5.2 2.9 4.9 3.3 4.6 3.7 3.8 4.1 2.8 5 2.7 5.1 2 5.1 1.4 5.5 1.1 10.3 1.6 0.7-10.8-0.1-5.6-0.7-5-1.1-5.3-2-5.2-2-4.5-2.7-4.6-4-4.1-4.3-3.8-4.9-3.2-5-2.7-5.5-1.7z"/><path class="b" d="m47.8 12.1l-5.8-2.9-2.8-1.3-2.6-0.9-1.5 2.4-1.3 2.8-2.4 6-1.3 5.2-1.2 5.5-0.1 6.1 0.2 5.5 1.2 5.6 1.6 5.5 2.2 4.7 2.9 4.1 3.9 4.1 4.1 3.6 4.4 3 4.8 2.9 9.2 4.9 4.3-9.9 1.7-5.3 0.9-5 0.8-5.4-0.2-5.6-0.4-4.9-1-5.2-2.4-5.2-2.8-5-3.6-4.7-3.9-4.1-4.5-3.5z"/><path class="a" d="m98.2 19.3l6.5-0.9 3-0.3h2.8l0.6 2.8 0.3 3 0.3 6.5-0.5 5.3-0.7 5.7-1.9 5.7-2 5.2-3 4.9-3.3 4.6-3.6 3.8-4.1 2.8-5 2.7-5.1 2-5.1 1.4-5.5 1.1-10.4 1.6-0.7-10.8 0.1-5.6 0.8-5 1-5.3 2-5.2 2.1-4.5 2.7-4.6 3.9-4.1 4.3-3.8 5-3.2 5-2.7 5.4-1.7z"/><path class="b" d="m78.2 12.1l5.7-2.9 2.8-1.3 2.7-0.9 1.4 2.4 1.3 2.8 2.4 6 1.4 5.2 1.1 5.5 0.1 6.1-0.2 5.5-1.1 5.6-1.6 5.5-2.3 4.7-2.9 4.1-3.8 4.1-4.1 3.6-4.4 3-4.8 2.9-9.3 4.9-4.2-9.9-1.7-5.3-1-5-0.8-5.4 0.2-5.6 0.5-4.9 1-5.2 2.4-5.2 2.8-5 3.6-4.7 3.9-4.1 4.5-3.5z"/><path class="c" d="m73.2 10.6l-4.4-4.7-2.2-2.2-2.1-1.7-2.2 1.7-2.2 2.2-4.3 4.7-3.1 4.4-3 4.7-2.2 5.6-1.7 5.2-0.9 5.6-0.4 5.6 0.4 5.2 1.3 4.8 2.2 5.1 2.6 4.8 3 4.3 3.5 4.3 7 7.8 7.4-7.8 3.4-4.3 2.6-4.3 2.6-4.8 1.8-5.1 1.3-4.8 0.9-5.2-0.5-5.6-0.8-5.6-1.8-5.6-2.2-5.2-3-4.7z"/><path  d="m42.5 47c-6.1 0-11-4.9-11-11 0-6.1 4.9-11 11-11 6 0 11 4.9 11 11 0 6.1-5 11-11 11z"/><path  d="m86.5 47c-6.1 0-11-4.9-11-11 0-6.1 4.9-11 11-11 6 0 11 4.9 11 11 0 6.1-5 11-11 11z"/><path class="d" d="m39.5 33c-1.4 0-2.5-1.1-2.5-2.5 0-1.4 1.1-2.5 2.5-2.5 1.4 0 2.5 1.1 2.5 2.5 0 1.4-1.1 2.5-2.5 2.5z"/><path class="d" d="m35 36c-0.6 0-1-0.4-1-1 0-0.6 0.4-1 1-1 0.6 0 1 0.4 1 1 0 0.6-0.4 1-1 1z"/><path class="d" d="m83.5 33c-1.4 0-2.5-1.1-2.5-2.5 0-1.4 1.1-2.5 2.5-2.5 1.4 0 2.5 1.1 2.5 2.5 0 1.4-1.1 2.5-2.5 2.5z"/><path class="d" d="m79.5 37c-0.8 0-1.5-0.7-1.5-1.5 0-0.8 0.7-1.5 1.5-1.5 0.8 0 1.5 0.7 1.5 1.5 0 0.8-0.7 1.5-1.5 1.5z"/><path  d="m71.4 53.2c1.1-0.1 2.1 0.7 2 1.8q-0.1 0.5-0.3 1.1-0.5 1.6-1.7 2.8c-0.7 0.8-1.7 1.5-2.8 2-1.1 0.6-2.2 0.9-3.5 1-1.2 0.2-2.5 0.1-3.7-0.2-1.2-0.3-2.3-0.8-3.3-1.4q-1.5-1.1-2.4-2.4-0.3-0.4-0.6-0.9c-0.5-1.1 0.4-2.1 1.5-2.3h0.2c1-0.1 1.9 0.7 2.4 1.5q0.6 0.8 1.4 1.4 0.9 0.5 1.9 0.8 1 0.2 2.1 0.1 1.1-0.1 2-0.5 1-0.5 1.6-1.2 0.7-0.7 1-1.6c0.3-0.9 0.9-1.9 1.9-2z"/></svg>